# xmcd
#
# Track frame offsets: 
#        150
#        10875
#        29250
#        45000
#        54450
#        70275
#        88050
#        99000
#        113850
#        130125
#        157125
#        172125
#        184725
#
# Disc length: 2632 seconds
#
# Revision: 0
# Processed by: cddbd v1.5PL3 Copyright (c) Steve Scherf et al.
# Submitted via: ExactAudioCopy v0.95a5
#
DISCID=a30a460d
DTITLE=Various Artist - Chicago - The Blues - Today (Vol. 2)
DYEAR=1966
DGENRE=
TTITLE0=Cotton Crop Blues - The Jimmy Cotton Blues Quartet
TTITLE1=The Blues Keep Falling - The Jimmy Cotton Blues Quartet
TTITLE2=Love Me Or Leave - The Jimmy Cotton Blues Quartet
TTITLE3=Rocket 88 - The Jimmy Cotton Blues Quartet
TTITLE4=West Helena Blues - The Jimmy Cotton Blues Quartet
TTITLE5=Everything's Going To Turn Out Alright - The Otis Rush Blues B
TTITLE5=and
TTITLE6=It's A Mean Old World - The Otis Rush Blues Band
TTITLE7=I Can't Quit You Baby - The Otis Rush Blues Band
TTITLE8=Rock - The Otis Rush Blues Band
TTITLE9=It's My Own Fault - The Otis Rush Blues Band
TTITLE10=Dust My Broom - Homesick James And His Dusters
TTITLE11=Set A Date - Homesick James And His Dusters
TTITLE12=So Mean To Me - Homesick James And His Dusters
EXTD=
EXTT0=
EXTT1=
EXTT2=
EXTT3=
EXTT4=
EXTT5=
EXTT6=
EXTT7=
EXTT8=
EXTT9=
EXTT10=
EXTT11=
EXTT12=
PLAYORDER=
